Coordinates
version=1
nRows=14
nColumns=24
inDegrees=yes

Units are S.I. units (second, meters, Newtons, ...)
Angles are in degrees.

endheader
time	pelvis_tilt	pelvis_list	pelvis_rotation	pelvis_tx	pelvis_ty	pelvis_tz	hip_flexion_r	hip_adduction_r	hip_rotation_r	knee_angle_r	ankle_angle_r	subtalar_angle_r	mtp_angle_r	hip_flexion_l	hip_adduction_l	hip_rotation_l	knee_angle_l	ankle_angle_l	subtalar_angle_l	mtp_angle_l	lumbar_extension	lumbar_bending	lumbar_rotation
      0.45000000	     -2.10763750	      3.65640138	      3.25619133	     -0.79474946	      1.04157750	      0.27203611	     28.48113247	     -4.62965414	     -4.69972828	     -2.14522201	      8.30609297	     -2.59664679	     10.44198078	    -16.73516637	      4.51376516	      5.14113800	     -3.76393473	     16.71725355	      6.24276177	      4.78608160	    -13.11847635	     -2.00526087	     -6.92671819
      0.45416667	     -2.11856051	      3.64088200	      3.36390439	     -0.78878026	      1.04072021	      0.27208869	     28.46136445	     -4.61359411	     -4.28310453	     -2.62688170	      8.27752905	     -2.82726094	     10.43299864	    -16.89190379	      4.43229998	      5.10709948	     -4.13317879	     16.80980080	      6.50116693	      4.86263689	    -13.10059465	     -1.85361206	     -6.96735979
      0.45833333	     -2.11161871	      3.61771965	      3.47539082	     -0.78276942	      1.03992519	      0.27214592	     28.40644988	     -4.58727978	     -3.90095433	     -3.10689678	      8.21106177	     -3.04305335	     10.43179924	    -17.05197125	      4.33682918	      5.03865411	     -4.53797870	     16.90005885	      6.81634500	      4.97392917	    -13.10243568	     -1.69042373	     -6.99398798
      0.46250000	     -2.10828800	      3.60061205	      3.58871320	     -0.77671032	      1.03916786	      0.27222509	     28.33699845	     -4.56352745	     -3.52109830	     -3.57846864	      8.13937110	     -3.23776968	     10.43767154	    -17.20242167	      4.24519142	      4.99259588	     -4.95650357	     16.97786011	      7.11459138	      5.08485271	    -13.09580138	     -1.53440555	     -7.03084881
      0.46666667	     -2.09812686	      3.55051557	      3.71296096	     -0.77058566	      1.03847819	      0.27228807	     28.23346790	     -4.50720985	     -3.20568895	     -4.02018668	      7.95598768	     -3.49214026	     10.44885350	    -17.34070604	      4.11225389	      4.89071509	     -5.41586692	     17.04708539	      7.47326008	      5.23495276	    -13.08095241	     -1.32871195	     -7.06463232
      0.47083333	     -2.09888887	      3.50668943	      3.83404450	     -0.76441483	      1.03781893	      0.27238390	     28.13167170	     -4.45231234	     -2.91451535	     -4.45664180	      7.72645541	     -3.74224473	     10.46880857	    -17.45294323	      3.98384143	      4.76167305	     -5.90324558	     17.08270038	      7.86333846	      5.42416222	    -13.04748250	     -1.14144126	     -7.09730740
      0.47500000	     -2.08271395	      3.44261864	      3.96032297	     -0.75819468	      1.03724756	      0.27247064	     27.99039806	     -4.37750118	     -2.67929483	     -4.86395861	      7.44634187	     -3.96816166	     10.49277981	    -17.58505697	      3.82928471	      4.64654842	     -6.38015301	     17.07269720	      8.22768928	      5.63594878	    -13.02804215	     -0.91750278	     -7.11706379
      0.47916667	     -2.10178429	      3.37630227	      4.08944982	     -0.75191112	      1.03667060	      0.27256402	     27.87580950	     -4.30108281	     -2.45911041	     -5.25941882	      7.11920916	     -4.23375211	     10.52106453	    -17.66011754	      3.67363835	      4.53060012	     -6.90783750	     17.05382561	      8.59473848	      5.86731593	    -12.95939339	     -0.70002800	     -7.14637247
      0.48333333	     -2.07556783	      3.30880443	      4.20352449	     -0.74564605	      1.03622226	      0.27271159	     27.70841635	     -4.21081129	     -2.24674513	     -5.64417259	      6.76287020	     -4.57229398	     10.56708617	    -17.74734287	      3.51136503	      4.31713503	     -7.49485725	     17.02419754	      9.04050371	      6.21435486	    -12.94815702	     -0.48529324	     -7.18002053
      0.48750000	     -2.07980706	      3.22974057	      4.33005089	     -0.73932408	      1.03579411	      0.27284015	     27.56418807	     -4.11807340	     -2.10499429	     -6.01275542	      6.30119581	     -4.87252917	     10.62811975	    -17.79791149	      3.33456730	      4.13883541	     -8.09277243	     16.94704268	      9.48329911	      6.67240809	    -12.89086480	     -0.26102332	     -7.20015435
      0.49166667	     -2.07344455	      3.11849347	      4.46666264	     -0.73294775	      1.03546599	      0.27293650	     27.39265236	     -3.99858743	     -2.01805471	     -6.35888976	      5.86251331	     -5.18330154	     10.67224782	    -17.84178027	      3.12293203	      3.99351186	     -8.71667534	     16.84485787	      9.81087084	      7.05637375	    -12.83140723	      0.03189388	     -7.21738150
      0.49583333	     -2.07099111	      3.01551899	      4.58387930	     -0.72656855	      1.03517754	      0.27307103	     27.26204603	     -3.88725291	     -2.04955287	     -6.77159783	      5.41231763	     -5.30563908	     10.93775040	    -17.83920324	      2.91539621	      3.70156240	     -9.41757966	     16.71318087	     10.37782932	      9.22252969	    -12.78668562	      0.26932775	     -7.04310380
      0.50000000	     -2.09716296	      2.90152878	      4.71848488	     -0.72014773	      1.03495435	      0.27320393	     27.11898566	     -3.76457684	     -1.95722271	     -7.10056621	      4.83422791	     -5.77111443	     10.93786968	    -17.83210160	      2.71049446	      3.68868755	    -10.06424085	     16.46750108	     10.47040217	      9.40890047	    -12.66931085	      0.57052404	     -7.23075264
      0.50416667	     -2.09466939	      2.76666459	      4.83399171	     -0.71371728	      1.03482852	      0.27336127	     26.96641992	     -3.61782102	     -1.94978021	     -7.46776028	      4.29001065	     -6.11574580	     10.94104891	    -17.80057640	      2.47361180	      3.47633033	    -10.80912200	     16.26660503	     10.85937046	      9.69041520	    -12.59942305	      0.87256939	     -7.18749301
